<mxfile host="app.diagrams.net" agent="Mozilla/5.0 (Windows NT 10.0; Win64; x64) AppleWebKit/537.36 (KHTML, like Gecko) Chrome/135.0.0.0 Safari/537.36" version="26.1.2">
  <diagram name="Página-1" id="-o1pUgEt7t3q77mt_SdC">
    <mxGraphModel dx="1050" dy="1019" grid="0" gridSize="10" guides="1" tooltips="1" connect="1" arrows="1" fold="1" page="0" pageScale="1" pageWidth="827" pageHeight="1169" math="0" shadow="0">
      <root>
        <mxCell id="0" />
        <mxCell id="1" parent="0" />
        <mxCell id="3Ll-SA4WihtH-wc0z6Ek-1" value="Fin" style="ellipse;whiteSpace=wrap;html=1;aspect=fixed;" vertex="1" parent="1">
          <mxGeometry x="142" y="360" width="80" height="80" as="geometry" />
        </mxCell>
        <mxCell id="3Ll-SA4WihtH-wc0z6Ek-6" value="" style="edgeStyle=none;curved=1;rounded=0;orthogonalLoop=1;jettySize=auto;html=1;fontSize=12;startSize=8;endSize=8;entryX=0.5;entryY=0;entryDx=0;entryDy=0;" edge="1" parent="1" source="3Ll-SA4WihtH-wc0z6Ek-2" target="3Ll-SA4WihtH-wc0z6Ek-4">
          <mxGeometry relative="1" as="geometry" />
        </mxCell>
        <mxCell id="3Ll-SA4WihtH-wc0z6Ek-2" value="Inicio" style="ellipse;whiteSpace=wrap;html=1;aspect=fixed;" vertex="1" parent="1">
          <mxGeometry x="142" y="-119" width="80" height="80" as="geometry" />
        </mxCell>
        <mxCell id="3Ll-SA4WihtH-wc0z6Ek-8" value="" style="edgeStyle=none;curved=1;rounded=0;orthogonalLoop=1;jettySize=auto;html=1;fontSize=12;startSize=8;endSize=8;" edge="1" parent="1" source="3Ll-SA4WihtH-wc0z6Ek-3" target="3Ll-SA4WihtH-wc0z6Ek-1">
          <mxGeometry relative="1" as="geometry" />
        </mxCell>
        <mxCell id="3Ll-SA4WihtH-wc0z6Ek-3" value="&lt;br&gt;&lt;span style=&quot;color: rgb(26, 26, 26);&quot;&gt;Mostrar al usuario mensaje: &lt;br&gt;&quot;El area del circulo con radio&quot; , radio, &quot;es:&quot; , area&lt;/span&gt;&lt;div&gt;&lt;br/&gt;&lt;/div&gt;" style="shape=parallelogram;perimeter=parallelogramPerimeter;whiteSpace=wrap;html=1;fixedSize=1;fillColor=#b1ddf0;strokeColor=#10739e;" vertex="1" parent="1">
          <mxGeometry x="89" y="242" width="184" height="73" as="geometry" />
        </mxCell>
        <mxCell id="3Ll-SA4WihtH-wc0z6Ek-7" value="" style="edgeStyle=none;curved=1;rounded=0;orthogonalLoop=1;jettySize=auto;html=1;fontSize=12;startSize=8;endSize=8;" edge="1" parent="1" source="3Ll-SA4WihtH-wc0z6Ek-4" target="3Ll-SA4WihtH-wc0z6Ek-5">
          <mxGeometry relative="1" as="geometry" />
        </mxCell>
        <mxCell id="3Ll-SA4WihtH-wc0z6Ek-4" value="&lt;br&gt;&lt;span style=&quot;color: rgb(26, 26, 26);&quot;&gt;Mostrar mensaje: &lt;br&gt;&quot;Por favor, ingrese el radio &lt;br&gt;del circulo&quot;&lt;/span&gt;&lt;div&gt;&lt;br&gt;&lt;/div&gt;" style="shape=parallelogram;perimeter=parallelogramPerimeter;whiteSpace=wrap;html=1;fixedSize=1;fillColor=#b1ddf0;strokeColor=#10739e;" vertex="1" parent="1">
          <mxGeometry x="99" y="-5" width="169" height="66" as="geometry" />
        </mxCell>
        <mxCell id="3Ll-SA4WihtH-wc0z6Ek-10" value="" style="edgeStyle=none;curved=1;rounded=0;orthogonalLoop=1;jettySize=auto;html=1;fontSize=12;startSize=8;endSize=8;" edge="1" parent="1" source="3Ll-SA4WihtH-wc0z6Ek-5" target="3Ll-SA4WihtH-wc0z6Ek-3">
          <mxGeometry relative="1" as="geometry" />
        </mxCell>
        <mxCell id="3Ll-SA4WihtH-wc0z6Ek-5" value="&#xa;&lt;span style=&quot;color: rgb(26, 26, 26);&quot;&gt;Definir y asignar a la variable area el resultado de π * radio^2&lt;/span&gt;&#xa;&#xa;" style="rounded=1;whiteSpace=wrap;html=1;fillColor=#fad7ac;strokeColor=#b46504;" vertex="1" parent="1">
          <mxGeometry x="110" y="110" width="142" height="77" as="geometry" />
        </mxCell>
      </root>
    </mxGraphModel>
  </diagram>
</mxfile>
